<mxfile host="app.diagrams.net" agent="Mozilla/5.0 (Windows NT 10.0; Win64; x64) AppleWebKit/537.36 (KHTML, like Gecko) Chrome/126.0.0.0 Safari/537.36" version="24.7.5">
  <diagram name="Página-1" id="dVDkaq47kBO-EkRBQh3j">
    <mxGraphModel dx="736" dy="437" grid="1" gridSize="10" guides="1" tooltips="1" connect="1" arrows="1" fold="1" page="1" pageScale="1" pageWidth="827" pageHeight="1169" math="0" shadow="0">
      <root>
        <mxCell id="0" />
        <mxCell id="1" parent="0" />
        <mxCell id="DnKEAvPWGHb0EJl64qnT-5" style="edgeStyle=orthogonalEdgeStyle;rounded=0;orthogonalLoop=1;jettySize=auto;html=1;entryX=0;entryY=0.5;entryDx=0;entryDy=0;" parent="1" source="DnKEAvPWGHb0EJl64qnT-1" target="DnKEAvPWGHb0EJl64qnT-3" edge="1">
          <mxGeometry relative="1" as="geometry" />
        </mxCell>
        <mxCell id="DnKEAvPWGHb0EJl64qnT-9" style="edgeStyle=orthogonalEdgeStyle;rounded=0;orthogonalLoop=1;jettySize=auto;html=1;entryX=0;entryY=0.5;entryDx=0;entryDy=0;" parent="1" source="DnKEAvPWGHb0EJl64qnT-1" target="DnKEAvPWGHb0EJl64qnT-8" edge="1">
          <mxGeometry relative="1" as="geometry" />
        </mxCell>
        <mxCell id="DnKEAvPWGHb0EJl64qnT-1" value="Criar inimigos" style="rounded=0;whiteSpace=wrap;html=1;" parent="1" vertex="1">
          <mxGeometry x="200" y="130" width="120" height="60" as="geometry" />
        </mxCell>
        <mxCell id="DnKEAvPWGHb0EJl64qnT-7" style="edgeStyle=orthogonalEdgeStyle;rounded=0;orthogonalLoop=1;jettySize=auto;html=1;entryX=0;entryY=0.5;entryDx=0;entryDy=0;" parent="1" source="DnKEAvPWGHb0EJl64qnT-3" target="DnKEAvPWGHb0EJl64qnT-4" edge="1">
          <mxGeometry relative="1" as="geometry" />
        </mxCell>
        <mxCell id="DnKEAvPWGHb0EJl64qnT-3" value="&lt;p&gt;Criar objeto inimigo que vai ter reação&lt;/p&gt;&lt;p&gt;com todos os tiros do player.&lt;/p&gt;" style="text;whiteSpace=wrap;html=1;" parent="1" vertex="1">
          <mxGeometry x="440" y="70" width="210" height="60" as="geometry" />
        </mxCell>
        <mxCell id="DnKEAvPWGHb0EJl64qnT-4" value="Criar a lógica de colisão dos tiros" style="text;whiteSpace=wrap;html=1;" parent="1" vertex="1">
          <mxGeometry x="720" y="85" width="210" height="30" as="geometry" />
        </mxCell>
        <mxCell id="DnKEAvPWGHb0EJl64qnT-8" value="Criar as machine states dos inimigos" style="text;whiteSpace=wrap;html=1;" parent="1" vertex="1">
          <mxGeometry x="440" y="200" width="230" height="30" as="geometry" />
        </mxCell>
        <mxCell id="DnKEAvPWGHb0EJl64qnT-12" style="edgeStyle=orthogonalEdgeStyle;rounded=0;orthogonalLoop=1;jettySize=auto;html=1;entryX=0;entryY=0.5;entryDx=0;entryDy=0;" parent="1" source="DnKEAvPWGHb0EJl64qnT-10" target="DnKEAvPWGHb0EJl64qnT-11" edge="1">
          <mxGeometry relative="1" as="geometry" />
        </mxCell>
        <mxCell id="DnKEAvPWGHb0EJl64qnT-14" style="edgeStyle=orthogonalEdgeStyle;rounded=0;orthogonalLoop=1;jettySize=auto;html=1;entryX=0;entryY=0.5;entryDx=0;entryDy=0;" parent="1" source="DnKEAvPWGHb0EJl64qnT-10" target="DnKEAvPWGHb0EJl64qnT-13" edge="1">
          <mxGeometry relative="1" as="geometry" />
        </mxCell>
        <mxCell id="DnKEAvPWGHb0EJl64qnT-10" value="Criar lógica para armamento" style="rounded=0;whiteSpace=wrap;html=1;" parent="1" vertex="1">
          <mxGeometry x="200" y="310" width="120" height="60" as="geometry" />
        </mxCell>
        <mxCell id="DnKEAvPWGHb0EJl64qnT-11" value="&lt;p&gt;Criar sistema de equipar&lt;/p&gt;&lt;p&gt;e desequipar armamento&lt;/p&gt;" style="text;whiteSpace=wrap;html=1;" parent="1" vertex="1">
          <mxGeometry x="440" y="260" width="150" height="60" as="geometry" />
        </mxCell>
        <mxCell id="DnKEAvPWGHb0EJl64qnT-13" value="&lt;p&gt;Criar upgrade de armas Ex: mais&lt;/p&gt;&lt;p&gt;projeteis por tiro, tiros que fazem curva, etc&lt;/p&gt;" style="text;whiteSpace=wrap;html=1;" parent="1" vertex="1">
          <mxGeometry x="440" y="350" width="260" height="70" as="geometry" />
        </mxCell>
        <mxCell id="DnKEAvPWGHb0EJl64qnT-20" style="edgeStyle=orthogonalEdgeStyle;rounded=0;orthogonalLoop=1;jettySize=auto;html=1;entryX=0;entryY=0.5;entryDx=0;entryDy=0;" parent="1" source="DnKEAvPWGHb0EJl64qnT-15" target="DnKEAvPWGHb0EJl64qnT-16" edge="1">
          <mxGeometry relative="1" as="geometry" />
        </mxCell>
        <mxCell id="DnKEAvPWGHb0EJl64qnT-21" style="edgeStyle=orthogonalEdgeStyle;rounded=0;orthogonalLoop=1;jettySize=auto;html=1;entryX=0;entryY=0.5;entryDx=0;entryDy=0;" parent="1" source="DnKEAvPWGHb0EJl64qnT-15" target="DnKEAvPWGHb0EJl64qnT-17" edge="1">
          <mxGeometry relative="1" as="geometry" />
        </mxCell>
        <mxCell id="DnKEAvPWGHb0EJl64qnT-22" style="edgeStyle=orthogonalEdgeStyle;rounded=0;orthogonalLoop=1;jettySize=auto;html=1;entryX=0;entryY=0.5;entryDx=0;entryDy=0;" parent="1" source="DnKEAvPWGHb0EJl64qnT-15" target="DnKEAvPWGHb0EJl64qnT-18" edge="1">
          <mxGeometry relative="1" as="geometry" />
        </mxCell>
        <mxCell id="DnKEAvPWGHb0EJl64qnT-23" style="edgeStyle=orthogonalEdgeStyle;rounded=0;orthogonalLoop=1;jettySize=auto;html=1;entryX=0;entryY=0.5;entryDx=0;entryDy=0;" parent="1" source="DnKEAvPWGHb0EJl64qnT-15" target="DnKEAvPWGHb0EJl64qnT-19" edge="1">
          <mxGeometry relative="1" as="geometry" />
        </mxCell>
        <mxCell id="DnKEAvPWGHb0EJl64qnT-15" value="Criar hud" style="rounded=0;whiteSpace=wrap;html=1;" parent="1" vertex="1">
          <mxGeometry x="200" y="560" width="120" height="60" as="geometry" />
        </mxCell>
        <mxCell id="DnKEAvPWGHb0EJl64qnT-29" style="edgeStyle=orthogonalEdgeStyle;rounded=0;orthogonalLoop=1;jettySize=auto;html=1;entryX=0;entryY=0.5;entryDx=0;entryDy=0;" parent="1" source="DnKEAvPWGHb0EJl64qnT-16" target="DnKEAvPWGHb0EJl64qnT-28" edge="1">
          <mxGeometry relative="1" as="geometry">
            <Array as="points">
              <mxPoint x="670" y="505" />
              <mxPoint x="670" y="575" />
            </Array>
          </mxGeometry>
        </mxCell>
        <mxCell id="DnKEAvPWGHb0EJl64qnT-16" value="Criar hud de vida" style="text;whiteSpace=wrap;html=1;" parent="1" vertex="1">
          <mxGeometry x="440" y="490" width="120" height="30" as="geometry" />
        </mxCell>
        <mxCell id="DnKEAvPWGHb0EJl64qnT-30" style="edgeStyle=orthogonalEdgeStyle;rounded=0;orthogonalLoop=1;jettySize=auto;html=1;entryX=0;entryY=0.5;entryDx=0;entryDy=0;" parent="1" source="DnKEAvPWGHb0EJl64qnT-17" target="DnKEAvPWGHb0EJl64qnT-28" edge="1">
          <mxGeometry relative="1" as="geometry">
            <mxPoint x="670" y="570" as="targetPoint" />
            <Array as="points">
              <mxPoint x="670" y="555" />
              <mxPoint x="670" y="575" />
            </Array>
          </mxGeometry>
        </mxCell>
        <mxCell id="DnKEAvPWGHb0EJl64qnT-17" value="Criar hud de combustível" style="text;whiteSpace=wrap;html=1;" parent="1" vertex="1">
          <mxGeometry x="440" y="540" width="150" height="30" as="geometry" />
        </mxCell>
        <mxCell id="DnKEAvPWGHb0EJl64qnT-31" style="edgeStyle=orthogonalEdgeStyle;rounded=0;orthogonalLoop=1;jettySize=auto;html=1;entryX=0;entryY=0.5;entryDx=0;entryDy=0;" parent="1" source="DnKEAvPWGHb0EJl64qnT-18" target="DnKEAvPWGHb0EJl64qnT-28" edge="1">
          <mxGeometry relative="1" as="geometry">
            <Array as="points">
              <mxPoint x="670" y="615" />
              <mxPoint x="670" y="575" />
            </Array>
          </mxGeometry>
        </mxCell>
        <mxCell id="DnKEAvPWGHb0EJl64qnT-18" value="Criar hud de munição" style="text;whiteSpace=wrap;html=1;fillColor=#d5e8d4;strokeColor=#82b366;" parent="1" vertex="1">
          <mxGeometry x="440" y="600" width="120" height="30" as="geometry" />
        </mxCell>
        <mxCell id="DnKEAvPWGHb0EJl64qnT-32" style="edgeStyle=orthogonalEdgeStyle;rounded=0;orthogonalLoop=1;jettySize=auto;html=1;entryX=0;entryY=0.5;entryDx=0;entryDy=0;" parent="1" source="DnKEAvPWGHb0EJl64qnT-19" target="DnKEAvPWGHb0EJl64qnT-28" edge="1">
          <mxGeometry relative="1" as="geometry">
            <Array as="points">
              <mxPoint x="670" y="665" />
              <mxPoint x="670" y="575" />
            </Array>
          </mxGeometry>
        </mxCell>
        <mxCell id="DnKEAvPWGHb0EJl64qnT-19" value="Criar hud de temperatura da arma" style="text;whiteSpace=wrap;html=1;fillColor=#d5e8d4;strokeColor=#82b366;" parent="1" vertex="1">
          <mxGeometry x="440" y="650" width="210" height="30" as="geometry" />
        </mxCell>
        <mxCell id="DnKEAvPWGHb0EJl64qnT-28" value="Implementar hud" style="text;whiteSpace=wrap;html=1;" parent="1" vertex="1">
          <mxGeometry x="770" y="560" width="170" height="30" as="geometry" />
        </mxCell>
        <mxCell id="DnKEAvPWGHb0EJl64qnT-33" value="Criar mini mapa" style="rounded=0;whiteSpace=wrap;html=1;" parent="1" vertex="1">
          <mxGeometry x="200" y="760" width="120" height="60" as="geometry" />
        </mxCell>
        <mxCell id="DnKEAvPWGHb0EJl64qnT-34" value="&lt;p&gt;Criar a descida em cada planeta,&amp;nbsp;&lt;span style=&quot;background-color: initial;&quot;&gt;simulando física.&lt;/span&gt;&lt;/p&gt;" style="rounded=0;whiteSpace=wrap;html=1;" parent="1" vertex="1">
          <mxGeometry x="185" y="900" width="150" height="60" as="geometry" />
        </mxCell>
      </root>
    </mxGraphModel>
  </diagram>
</mxfile>
